<svg id="colorCircle" xmlns="http://www.w3.org/2000/svg" width="100" height="100" viewBox="0 0 100 102">
  <circle id="Ellipse_132" data-name="Ellipse 132" cx="6.094" cy="6.094" r="6.094" transform="translate(43.677)" fill="#fff"/>
  <circle id="Ellipse_133" data-name="Ellipse 133" cx="6.094" cy="6.094" r="6.094" transform="translate(65.008 6.094)" fill="#fff" opacity="0.5"/>
  <circle id="Ellipse_134" data-name="Ellipse 134" cx="6.094" cy="6.094" r="6.094" transform="translate(79.228 21.331)" fill="#fa9a00" opacity="0.8"/>
  <circle id="Ellipse_135" data-name="Ellipse 135" cx="6.602" cy="6.602" r="6.602" transform="translate(86.338 42.661)" fill="#fecfb0"/>
  <circle id="Ellipse_136" data-name="Ellipse 136" cx="6.602" cy="6.602" r="6.602" transform="translate(81.259 66.023)" fill="#ffe953"/>
  <circle id="Ellipse_137" data-name="Ellipse 137" cx="6.094" cy="6.094" r="6.094" transform="translate(65.008 82.275)" fill="#fff07f"/>
  <circle id="Ellipse_138" data-name="Ellipse 138" cx="6.094" cy="6.094" r="6.094" transform="translate(43.677 89.385)" fill="#23e295"/>
  <circle id="Ellipse_139" data-name="Ellipse 139" cx="6.094" cy="6.094" r="6.094" transform="translate(22.346 83.291)" fill="#90f0ca"/>
  <circle id="Ellipse_140" data-name="Ellipse 140" cx="6.094" cy="6.094" r="6.094" transform="translate(4.063 63.992)" fill="#00baef"/>
  <circle id="Ellipse_141" data-name="Ellipse 141" cx="6.602" cy="6.602" r="6.602" transform="translate(0 42.661)" fill="#beedfb"/>
  <circle id="Ellipse_142" data-name="Ellipse 142" cx="6.602" cy="6.602" r="6.602" transform="translate(5.079 22.346)" fill="#8338ec"/>
  <circle id="Ellipse_143" data-name="Ellipse 143" cx="6.094" cy="6.094" r="6.094" transform="translate(22.346 6.094)" fill="#e0cdfa"/>
</svg>
